HIERARCHY
ROOT mixamorig:Hips
{
	OFFSET -0.000008 104.274872 1.554316
	CHANNELS 6 Xposition Yposition Zposition Xrotation Yrotation Zrotation
	JOINT mixamorig:Spine
	{
		OFFSET -0.000005 10.181595 0.131519
		CHANNELS 6 Xposition Yposition Zposition Xrotation Yrotation Zrotation
		JOINT mixamorig:Spine1
		{
			OFFSET -0.000000 9.893959 -1.470707
			CHANNELS 6 Xposition Yposition Zposition Xrotation Yrotation Zrotation
			JOINT mixamorig:Spine2
			{
				OFFSET -0.000000 9.220757 -1.370641
				CHANNELS 6 Xposition Yposition Zposition Xrotation Yrotation Zrotation
				JOINT mixamorig:Neck
				{
					OFFSET 0.000001 16.740417 -2.049036
					CHANNELS 6 Xposition Yposition Zposition Xrotation Yrotation Zrotation
					JOINT mixamorig:Head
					{
						OFFSET 0.000000 9.617874 1.685006
						CHANNELS 6 Xposition Yposition Zposition Xrotation Yrotation Zrotation
						JOINT mixamorig:HeadTop_End
						{
							OFFSET 0.000002 22.037354 7.501101
							CHANNELS 6 Xposition Yposition Zposition Xrotation Yrotation Zrotation
							End Site
							{
								OFFSET 0.000168 2310.654297 -282.823242
							}
						}
					}
				}
				JOINT mixamorig:RightShoulder
				{
					OFFSET -4.569970 11.014908 -2.160885
					CHANNELS 6 Xposition Yposition Zposition Xrotation Yrotation Zrotation
					JOINT mixamorig:RightArm
					{
						OFFSET -10.592851 -0.524811 -2.232101
						CHANNELS 6 Xposition Yposition Zposition Xrotation Yrotation Zrotation
						JOINT mixamorig:RightForeArm
						{
							OFFSET -27.841511 0.000031 -0.000004
							CHANNELS 6 Xposition Yposition Zposition Xrotation Yrotation Zrotation
							JOINT mixamorig:RightHand
							{
								OFFSET -28.328831 -0.000015 0.000015
								CHANNELS 6 Xposition Yposition Zposition Xrotation Yrotation Zrotation
								JOINT mixamorig:RightHandThumb1
								{
									OFFSET -2.464806 -1.573990 2.681852
									CHANNELS 6 Xposition Yposition Zposition Xrotation Yrotation Zrotation
									JOINT mixamorig:RightHandThumb2
									{
										OFFSET -3.215179 -1.872803 1.924282
										CHANNELS 6 Xposition Yposition Zposition Xrotation Yrotation Zrotation
										JOINT mixamorig:RightHandThumb3
										{
											OFFSET -2.654831 -1.527969 1.512609
											CHANNELS 6 Xposition Yposition Zposition Xrotation Yrotation Zrotation
											JOINT mixamorig:RightHandThumb4
											{
												OFFSET -2.018814 -1.152008 1.108052
												CHANNELS 6 Xposition Yposition Zposition Xrotation Yrotation Zrotation
												End Site
												{
													OFFSET -188.809540 -114.533607 132.431396
												}
											}
										}
									}
								}
								JOINT mixamorig:RightHandIndex1
								{
									OFFSET -9.108284 -0.517868 2.259835
									CHANNELS 6 Xposition Yposition Zposition Xrotation Yrotation Zrotation
									JOINT mixamorig:RightHandIndex2
									{
										OFFSET -3.699989 0.000000 0.001215
										CHANNELS 6 Xposition Yposition Zposition Xrotation Yrotation Zrotation
										JOINT mixamorig:RightHandIndex3
										{
											OFFSET -2.850006 0.000031 -0.000522
											CHANNELS 6 Xposition Yposition Zposition Xrotation Yrotation Zrotation
											JOINT mixamorig:RightHandIndex4
											{
												OFFSET -2.772186 -0.000015 -0.000020
												CHANNELS 6 Xposition Yposition Zposition Xrotation Yrotation Zrotation
												End Site
												{
													OFFSET -277.218445 0.000000 -0.050231
												}
											}
										}
									}
								}
								JOINT mixamorig:RightHandMiddle1
								{
									OFFSET -9.532516 -0.000031 -0.000023
									CHANNELS 6 Xposition Yposition Zposition Xrotation Yrotation Zrotation
									JOINT mixamorig:RightHandMiddle2
									{
										OFFSET -3.700005 -0.000015 0.003713
										CHANNELS 6 Xposition Yposition Zposition Xrotation Yrotation Zrotation
										JOINT mixamorig:RightHandMiddle3
										{
											OFFSET -2.949974 0.000015 -0.002054
											CHANNELS 6 Xposition Yposition Zposition Xrotation Yrotation Zrotation
											JOINT mixamorig:RightHandMiddle4
											{
												OFFSET -2.946640 0.000000 -0.000156
												CHANNELS 6 Xposition Yposition Zposition Xrotation Yrotation Zrotation
												End Site
												{
													OFFSET -294.664337 0.000000 -0.113670
												}
											}
										}
									}
								}
								JOINT mixamorig:RightHandRing1
								{
									OFFSET -9.103600 -0.043076 -1.865134
									CHANNELS 6 Xposition Yposition Zposition Xrotation Yrotation Zrotation
									JOINT mixamorig:RightHandRing2
									{
										OFFSET -3.379288 0.000000 -0.001055
										CHANNELS 6 Xposition Yposition Zposition Xrotation Yrotation Zrotation
										JOINT mixamorig:RightHandRing3
										{
											OFFSET -2.889687 -0.000015 0.000379
											CHANNELS 6 Xposition Yposition Zposition Xrotation Yrotation Zrotation
											JOINT mixamorig:RightHandRing4
											{
												OFFSET -2.638809 -0.000015 0.000941
												CHANNELS 6 Xposition Yposition Zposition Xrotation Yrotation Zrotation
												End Site
												{
													OFFSET -263.880371 0.000000 0.516020
												}
											}
										}
									}
								}
								JOINT mixamorig:RightHandPinky1
								{
									OFFSET -8.076683 -0.486710 -3.806280
									CHANNELS 6 Xposition Yposition Zposition Xrotation Yrotation Zrotation
									JOINT mixamorig:RightHandPinky2
									{
										OFFSET -3.600014 -0.000015 -0.003747
										CHANNELS 6 Xposition Yposition Zposition Xrotation Yrotation Zrotation
										JOINT mixamorig:RightHandPinky3
										{
											OFFSET -2.099983 0.000000 -0.005739
											CHANNELS 6 Xposition Yposition Zposition Xrotation Yrotation Zrotation
											JOINT mixamorig:RightHandPinky4
											{
												OFFSET -2.115768 -0.000031 -0.003680
												CHANNELS 6 Xposition Yposition Zposition Xrotation Yrotation Zrotation
												End Site
												{
													OFFSET -211.577087 0.000000 -0.350686
												}
											}
										}
									}
								}
							}
						}
					}
				}
				JOINT mixamorig:LeftShoulder
				{
					OFFSET 4.570447 11.014725 -2.160855
					CHANNELS 6 Xposition Yposition Zposition Xrotation Yrotation Zrotation
					JOINT mixamorig:LeftArm
					{
						OFFSET 10.592371 -0.524597 -2.232119
						CHANNELS 6 Xposition Yposition Zposition Xrotation Yrotation Zrotation
						JOINT mixamorig:LeftForeArm
						{
							OFFSET 27.841532 -0.000031 0.000026
							CHANNELS 6 Xposition Yposition Zposition Xrotation Yrotation Zrotation
							JOINT mixamorig:LeftHand
							{
								OFFSET 28.328846 -0.000061 0.000022
								CHANNELS 6 Xposition Yposition Zposition Xrotation Yrotation Zrotation
								JOINT mixamorig:LeftHandThumb1
								{
									OFFSET 2.466141 -1.576172 2.681732
									CHANNELS 6 Xposition Yposition Zposition Xrotation Yrotation Zrotation
									JOINT mixamorig:LeftHandThumb2
									{
										OFFSET 3.217812 -1.872070 1.916482
										CHANNELS 6 Xposition Yposition Zposition Xrotation Yrotation Zrotation
										JOINT mixamorig:LeftHandThumb3
										{
											OFFSET 2.656029 -1.528778 1.514513
											CHANNELS 6 Xposition Yposition Zposition Xrotation Yrotation Zrotation
											JOINT mixamorig:LeftHandThumb4
											{
												OFFSET 2.020889 -1.154053 1.115139
												CHANNELS 6 Xposition Yposition Zposition Xrotation Yrotation Zrotation
												End Site
												{
													OFFSET 190.885437 -115.081749 130.048782
												}
											}
										}
									}
								}
								JOINT mixamorig:LeftHandIndex1
								{
									OFFSET 9.109314 -0.518021 2.259871
									CHANNELS 6 Xposition Yposition Zposition Xrotation Yrotation Zrotation
									JOINT mixamorig:LeftHandIndex2
									{
										OFFSET 3.699989 0.000000 -0.000322
										CHANNELS 6 Xposition Yposition Zposition Xrotation Yrotation Zrotation
										JOINT mixamorig:LeftHandIndex3
										{
											OFFSET 2.850006 0.000000 0.000352
											CHANNELS 6 Xposition Yposition Zposition Xrotation Yrotation Zrotation
											JOINT mixamorig:LeftHandIndex4
											{
												OFFSET 2.774864 -0.000031 -0.000027
												CHANNELS 6 Xposition Yposition Zposition Xrotation Yrotation Zrotation
												End Site
												{
													OFFSET 277.486267 0.000000 -0.009857
												}
											}
										}
									}
								}
								JOINT mixamorig:LeftHandMiddle1
								{
									OFFSET 9.533394 0.000061 0.000044
									CHANNELS 6 Xposition Yposition Zposition Xrotation Yrotation Zrotation
									JOINT mixamorig:LeftHandMiddle2
									{
										OFFSET 3.699989 -0.000015 -0.000231
										CHANNELS 6 Xposition Yposition Zposition Xrotation Yrotation Zrotation
										JOINT mixamorig:LeftHandMiddle3
										{
											OFFSET 2.949997 -0.000015 -0.000059
											CHANNELS 6 Xposition Yposition Zposition Xrotation Yrotation Zrotation
											JOINT mixamorig:LeftHandMiddle4
											{
												OFFSET 2.952896 0.000031 0.000063
												CHANNELS 6 Xposition Yposition Zposition Xrotation Yrotation Zrotation
												End Site
												{
													OFFSET 295.289337 0.000000 0.022810
												}
											}
										}
									}
								}
								JOINT mixamorig:LeftHandRing1
								{
									OFFSET 9.104523 -0.042999 -1.865074
									CHANNELS 6 Xposition Yposition Zposition Xrotation Yrotation Zrotation
									JOINT mixamorig:LeftHandRing2
									{
										OFFSET 3.150009 -0.000031 0.000043
										CHANNELS 6 Xposition Yposition Zposition Xrotation Yrotation Zrotation
										JOINT mixamorig:LeftHandRing3
										{
											OFFSET 2.949982 -0.000015 0.000040
											CHANNELS 6 Xposition Yposition Zposition Xrotation Yrotation Zrotation
											JOINT mixamorig:LeftHandRing4
											{
												OFFSET 2.644348 0.000000 0.000057
												CHANNELS 6 Xposition Yposition Zposition Xrotation Yrotation Zrotation
												End Site
												{
													OFFSET 264.434631 0.000000 0.012105
												}
											}
										}
									}
								}
								JOINT mixamorig:LeftHandPinky1
								{
									OFFSET 8.077789 -0.486847 -3.806259
									CHANNELS 6 Xposition Yposition Zposition Xrotation Yrotation Zrotation
									JOINT mixamorig:LeftHandPinky2
									{
										OFFSET 3.599953 0.000031 0.014727
										CHANNELS 6 Xposition Yposition Zposition Xrotation Yrotation Zrotation
										JOINT mixamorig:LeftHandPinky3
										{
											OFFSET 2.100021 0.000015 0.007705
											CHANNELS 6 Xposition Yposition Zposition Xrotation Yrotation Zrotation
											JOINT mixamorig:LeftHandPinky4
											{
												OFFSET 2.125504 0.000031 0.007517
												CHANNELS 6 Xposition Yposition Zposition Xrotation Yrotation Zrotation
												End Site
												{
													OFFSET 212.550781 0.000000 0.625752
												}
											}
										}
									}
								}
							}
						}
					}
				}
			}
		}
	}
	JOINT mixamorig:RightUpLeg
	{
		OFFSET -8.207787 -6.751648 -1.599560
		CHANNELS 6 Xposition Yposition Zposition Xrotation Yrotation Zrotation
		JOINT mixamorig:RightLeg
		{
			OFFSET -0.000002 -44.370117 0.345942
			CHANNELS 6 Xposition Yposition Zposition Xrotation Yrotation Zrotation
			JOINT mixamorig:RightFoot
			{
				OFFSET 0.000003 -44.423679 -3.043532
				CHANNELS 6 Xposition Yposition Zposition Xrotation Yrotation Zrotation
				JOINT mixamorig:RightToeBase
				{
					OFFSET -0.000002 -8.728671 10.710558
					CHANNELS 6 Xposition Yposition Zposition Xrotation Yrotation Zrotation
					JOINT mixamorig:RightToe_End
					{
						OFFSET -0.000001 -0.000679 9.278119
						CHANNELS 6 Xposition Yposition Zposition Xrotation Yrotation Zrotation
						End Site
						{
							OFFSET 0.000000 -0.067690 927.812134
						}
					}
				}
			}
		}
	}
	JOINT mixamorig:LeftUpLeg
	{
		OFFSET 8.207793 -6.751686 -1.599556
		CHANNELS 6 Xposition Yposition Zposition Xrotation Yrotation Zrotation
		JOINT mixamorig:LeftLeg
		{
			OFFSET -0.000004 -44.370014 0.346954
			CHANNELS 6 Xposition Yposition Zposition Xrotation Yrotation Zrotation
			JOINT mixamorig:LeftFoot
			{
				OFFSET -0.000001 -44.423672 -3.044401
				CHANNELS 6 Xposition Yposition Zposition Xrotation Yrotation Zrotation
				JOINT mixamorig:LeftToeBase
				{
					OFFSET -0.000002 -8.728669 10.710558
					CHANNELS 6 Xposition Yposition Zposition Xrotation Yrotation Zrotation
					JOINT mixamorig:LeftToe_End
					{
						OFFSET -0.000003 -0.000679 9.278133
						CHANNELS 6 Xposition Yposition Zposition Xrotation Yrotation Zrotation
						End Site
						{
							OFFSET 0.000000 -0.068021 927.813477
						}
					}
				}
			}
		}
	}
}
MOTION
Frames: 3
Frame Time: 0.033333
0.000006 104.270477 1.554256 0.000010 0.000003 -0.000113 -0.000005 10.181587 0.131522 0.000001 -0.000003 0.000084 -0.000000 9.893967 -1.470711 0.000001 0.000000 -0.000000 -0.000000 9.220802 -1.370642 0.000000 -0.000000 -0.000000 0.000001 16.740433 -2.049030 0.000000 -0.000000 -0.000000 0.000000 9.617859 1.685014 0.000000 0.000000 0.000000 0.000002 22.037384 7.501101 0.000000 -0.000000 0.000000 -4.569968 11.014880 -2.160881 0.000008 0.000001 -0.000038 -10.592778 -0.524849 -2.231753 77.491638 64.900068 -54.065305 -27.841496 -0.000007 0.000583 46.890656 104.957126 -58.910566 -28.328833 0.000023 0.000043 -0.000322 -0.000044 0.000006 -2.464681 -1.574194 2.682027 113.129181 -155.316999 158.713707 -3.215153 -1.872949 1.924387 312.026564 -5.626849 346.908586 -2.654829 -1.528171 1.512742 311.551593 -1.177112 -13.239644 -2.018853 -1.152002 1.108070 -0.000003 -0.000000 0.000000 -9.108356 -0.517998 2.260011 315.984441 17.862422 7.276916 -3.700083 -0.000124 0.001417 313.470248 19.971290 8.654363 -2.850075 -0.000127 -0.000344 -47.371819 16.385351 7.227457 -2.772155 -0.000020 -0.000018 0.000001 -0.000001 -0.000000 -9.532559 -0.000190 0.000148 313.444320 15.814905 6.868583 -3.700067 -0.000140 0.003929 -49.158053 16.807849 7.710303 -2.950038 -0.000152 -0.001885 -48.014126 14.223355 6.359217 -2.946630 0.000002 -0.000153 0.000000 0.000000 -0.000001 -9.103678 -0.043185 -1.864966 314.461363 15.133742 6.373565 -3.379322 -0.000172 -0.000859 -49.101151 11.717714 5.372292 -2.889748 -0.000150 0.000584 -51.438831 9.486905 4.593081 -2.638827 0.000000 0.000941 0.000000 -0.000000 0.000004 -8.076737 -0.486792 -3.806145 323.981335 18.890992 6.175402 -3.600034 -0.000202 -0.003569 -49.370964 10.140620 4.561516 -2.100018 -0.000201 -0.005532 -54.426892 7.183878 3.610542 -2.115771 -0.000010 -0.003682 0.000001 -0.000000 -0.000005 4.570446 11.014691 -2.160851 -0.000018 0.000010 -0.000021 10.592536 -0.524528 -2.232405 75.999194 -64.499034 52.481015 27.841789 -0.000060 -0.000112 30.288843 -105.757099 39.353019 28.328829 -0.000029 0.000024 0.000023 -0.000089 0.000001 2.466143 -1.576143 2.681886 64.964934 126.689545 -119.574332 3.217750 -1.872057 1.916547 24.631949 131.097708 275.992535 2.656008 -1.528815 1.514600 207.596401 43.820581 90.756712 2.020891 -1.154085 1.115152 0.000004 0.000002 0.000002 9.109432 -0.517747 2.259843 145.609374 -14.842872 45.614425 3.700010 -0.000016 -0.000299 186.684916 -155.030199 -178.514330 2.849994 0.000020 0.000445 334.316286 -6.238124 -1.423208 2.774868 -0.000018 -0.000029 -0.000003 0.000003 -0.000002 9.533516 0.000312 0.000016 147.685806 -11.634928 38.720411 3.700002 -0.000032 -0.000220 354.533564 6.665165 0.318795 2.950016 -0.000007 0.000023 335.986595 3.101776 0.659245 2.952853 -0.000045 0.000043 -0.000003 0.000002 -0.000001 9.104646 -0.042730 -1.865095 150.501333 -11.238462 40.991531 3.149984 -0.000009 -0.000007 349.840404 31.711930 2.892006 2.949982 -0.000016 0.000063 334.509225 18.467027 4.211159 2.644329 0.000030 0.000044 0.000001 -0.000001 -0.000001 8.077913 -0.486601 -3.806256 157.327301 -9.031456 45.880542 3.599932 -0.000001 0.014716 346.102733 30.356581 3.624036 2.099996 -0.000006 0.007743 339.970508 18.678880 3.188973 2.125493 -0.000019 0.007524 -0.000001 -0.000000 -0.000002 -8.207786 -6.751667 -1.599560 -0.077001 -0.000003 0.000080 -0.000002 -44.370110 0.345938 0.153719 -0.000000 -0.000000 0.000000 -44.423679 -3.043532 -0.076700 0.000000 -0.000002 -0.000006 -8.728667 10.710559 -0.000009 -0.000000 -0.000000 -0.000001 -0.000679 9.278123 0.000000 -0.000000 -0.000000 8.207792 -6.751710 -1.599556 -0.074518 -0.000003 0.000081 -0.000002 -44.370014 0.346960 0.148822 0.000002 0.000000 -0.000001 -44.423664 -3.044403 -0.074314 0.000000 -0.000002 -0.000004 -8.728671 10.710558 0.000007 -0.000000 -0.000000 0.000000 -0.000680 9.278137 -0.000000 0.000000 -0.000001 
0.000006 104.270477 1.554256 0.000010 0.000003 -0.000113 -0.000005 10.181587 0.131522 0.000001 -0.000003 0.000084 -0.000000 9.893967 -1.470711 0.000001 0.000000 -0.000000 -0.000000 9.220802 -1.370642 0.000000 -0.000000 -0.000000 0.000001 16.740433 -2.049030 0.000000 -0.000000 -0.000000 0.000000 9.617859 1.685014 0.000000 0.000000 0.000000 0.000002 22.037384 7.501101 0.000000 -0.000000 0.000000 -4.569968 11.014880 -2.160881 0.000008 0.000001 -0.000038 -10.592780 -0.524843 -2.231749 77.539463 64.522181 -53.767133 -27.841482 0.000004 0.000590 46.134120 104.971873 -58.034724 -28.328836 -0.000009 0.000021 -0.000325 -0.000044 0.000007 -2.464700 -1.574204 2.682014 116.502113 -157.851382 160.529813 -3.215153 -1.872962 1.924395 311.781852 -4.796933 346.845120 -2.654834 -1.528188 1.512751 310.411061 -0.929453 -13.538214 -2.018838 -1.152003 1.108064 -0.000006 0.000003 0.000004 -9.108363 -0.517994 2.260036 315.159299 18.333119 7.625930 -3.700076 -0.000122 0.001415 314.791398 20.244092 8.498403 -2.850094 -0.000112 -0.000357 -45.102273 16.541461 6.908549 -2.772160 -0.000003 -0.000018 -0.000002 0.000000 -0.000001 -9.532572 -0.000227 0.000151 312.255922 15.601761 6.970094 -3.700074 -0.000129 0.003912 -47.167572 16.543862 7.242917 -2.950057 -0.000129 -0.001898 -45.384742 14.574591 6.120099 -2.946631 0.000026 -0.000156 -0.000001 -0.000001 -0.000000 -9.103670 -0.043211 -1.864950 313.545708 15.000762 6.458428 -3.379315 -0.000155 -0.000866 -48.882400 11.749428 5.359741 -2.889750 -0.000157 0.000588 -51.694604 10.159577 4.946701 -2.638821 -0.000024 0.000940 0.000000 -0.000000 0.000002 -8.076742 -0.486813 -3.806129 322.478502 19.800490 6.768729 -3.600028 -0.000208 -0.003571 -48.653586 9.884824 4.369663 -2.100020 -0.000179 -0.005542 -53.222224 7.086453 3.468826 -2.115785 -0.000054 -0.003680 0.000000 -0.000000 -0.000003 4.570446 11.014691 -2.160851 -0.000018 0.000010 -0.000021 10.592537 -0.524524 -2.232403 75.949033 -63.672362 51.715016 27.841778 -0.000067 -0.000109 30.700222 -105.955208 40.002109 28.328833 -0.000028 0.000029 0.000022 -0.000089 -0.000000 2.466149 -1.576148 2.681905 69.739851 126.024189 -123.045325 3.217751 -1.872050 1.916527 27.073220 129.549796 274.532514 2.656008 -1.528810 1.514622 213.350972 44.405215 85.410266 2.020894 -1.154081 1.115143 0.000001 0.000003 0.000007 9.109447 -0.517772 2.259852 146.556680 -15.335385 48.236729 3.700011 -0.000038 -0.000293 182.614383 -153.981943 -179.392337 2.850001 0.000020 0.000448 333.635862 -6.330709 -1.483999 2.774872 -0.000029 -0.000023 -0.000002 0.000001 -0.000000 9.533516 0.000317 0.000033 149.476450 -11.509948 40.513059 3.700001 -0.000015 -0.000222 353.584468 5.046678 0.283250 2.950029 -0.000033 0.000027 337.956176 2.732900 0.531864 2.952863 -0.000029 0.000060 -0.000003 -0.000002 -0.000002 9.104649 -0.042711 -1.865077 152.422351 -10.823940 42.224134 3.149995 0.000012 0.000011 348.489912 29.143915 3.001013 2.949970 0.000001 0.000048 336.822965 17.459142 3.606432 2.644325 0.000016 0.000052 -0.000000 -0.000002 -0.000000 8.077909 -0.486585 -3.806242 160.121682 -7.900686 46.308505 3.599939 -0.000019 0.014738 343.859699 31.355544 4.382541 2.099995 -0.000005 0.007750 340.185959 19.469009 3.292269 2.125506 -0.000017 0.007509 0.000001 -0.000000 0.000002 -8.207786 -6.751667 -1.599560 -0.077001 -0.000003 0.000080 -0.000002 -44.370110 0.345938 0.153719 -0.000000 -0.000000 0.000000 -44.423679 -3.043532 -0.076700 0.000000 -0.000002 -0.000006 -8.728667 10.710559 -0.000009 -0.000000 -0.000000 -0.000001 -0.000679 9.278123 0.000000 -0.000000 -0.000000 8.207792 -6.751710 -1.599556 -0.074518 -0.000003 0.000081 -0.000002 -44.370014 0.346960 0.148822 0.000002 0.000000 -0.000001 -44.423664 -3.044403 -0.074314 0.000000 -0.000002 -0.000004 -8.728671 10.710558 0.000007 -0.000000 -0.000000 0.000000 -0.000680 9.278137 -0.000000 0.000000 -0.000001 
0.000006 104.270477 1.554256 0.000010 0.000003 -0.000113 -0.000005 10.181587 0.131522 0.000001 -0.000003 0.000084 -0.000000 9.893967 -1.470711 0.000001 0.000000 -0.000000 -0.000000 9.220802 -1.370642 0.000000 -0.000000 -0.000000 0.000001 16.740433 -2.049030 0.000000 -0.000000 -0.000000 0.000000 9.617859 1.685014 0.000000 0.000000 0.000000 0.000002 22.037384 7.501101 0.000000 -0.000000 0.000000 -4.569968 11.014880 -2.160881 0.000008 0.000001 -0.000038 -10.592781 -0.524851 -2.231752 77.696052 63.573639 -53.048850 -27.841496 0.000003 0.000580 45.775317 104.563837 -57.256605 -28.328829 0.000008 0.000023 -0.000315 -0.000046 0.000007 -2.464707 -1.574191 2.682005 118.735435 -159.892666 161.688760 -3.215162 -1.872946 1.924355 314.257086 -3.564393 347.570787 -2.654834 -1.528198 1.512738 312.050334 -0.588665 -13.089163 -2.018826 -1.151999 1.108061 0.000000 -0.000003 0.000002 -9.108362 -0.517983 2.260035 314.135399 17.769698 7.576408 -3.700074 -0.000105 0.001418 315.117881 19.922648 8.294244 -2.850071 -0.000101 -0.000356 -43.526770 15.925016 6.392185 -2.772164 -0.000013 -0.000024 -0.000000 -0.000000 -0.000003 -9.532574 -0.000191 0.000159 312.556232 15.236803 6.758576 -3.700068 -0.000134 0.003902 -45.879248 16.717011 7.097483 -2.950042 -0.000139 -0.001874 -43.814496 13.942087 5.628513 -2.946628 0.000013 -0.000155 0.000001 0.000000 0.000004 -9.103669 -0.043200 -1.864948 314.214984 14.969782 6.341604 -3.379323 -0.000157 -0.000858 -46.920883 11.492032 5.005705 -2.889751 -0.000136 0.000576 -50.198602 9.213503 4.338035 -2.638822 0.000015 0.000943 -0.000000 -0.000000 -0.000001 -8.076743 -0.486793 -3.806127 322.231550 19.095047 6.567942 -3.600027 -0.000219 -0.003557 -48.915250 8.758637 3.877181 -2.100007 -0.000198 -0.005561 -54.889890 5.573916 2.804570 -2.115765 -0.000040 -0.003681 -0.000000 0.000000 -0.000005 4.570446 11.014691 -2.160851 -0.000018 0.000010 -0.000021 10.592537 -0.524523 -2.232405 76.092754 -63.129772 51.355847 27.841780 -0.000061 -0.000104 30.379073 -106.111258 39.701151 28.328831 -0.000015 0.000027 0.000021 -0.000089 0.000000 2.466135 -1.576163 2.681891 66.797590 125.777961 -120.590323 3.217758 -1.872048 1.916524 19.311276 129.379861 282.900234 2.655970 -1.528830 1.514611 194.910226 45.160002 105.565532 2.020888 -1.154074 1.115141 -0.000002 0.000003 0.000001 9.109439 -0.517787 2.259834 146.480032 -15.507268 48.616696 3.700003 -0.000009 -0.000336 193.067222 -153.159684 -176.864361 2.850007 0.000016 0.000444 337.866782 -5.338681 -1.044746 2.774879 -0.000029 -0.000026 0.000002 0.000000 0.000000 9.533506 0.000313 0.000008 146.310876 -12.055472 38.424858 3.700009 -0.000014 -0.000238 358.132472 4.160935 0.067976 2.950023 -0.000027 0.000025 335.032745 3.089511 0.683545 2.952857 -0.000027 0.000066 -0.000004 0.000003 -0.000003 9.104637 -0.042747 -1.865107 148.503038 -11.783729 40.206387 3.149994 0.000009 0.000017 349.878653 28.333735 2.560592 2.949983 -0.000003 0.000070 334.953624 17.693832 3.959530 2.644322 0.000048 0.000045 -0.000002 0.000001 -0.000002 8.077911 -0.486603 -3.806266 156.778427 -9.970001 48.810386 3.599935 0.000016 0.014712 345.862174 28.890406 3.500460 2.099991 -0.000038 0.007729 338.731347 19.122100 3.478582 2.125508 -0.000014 0.007515 0.000003 0.000000 -0.000002 -8.207786 -6.751667 -1.599560 -0.077001 -0.000003 0.000080 -0.000002 -44.370110 0.345938 0.153719 -0.000000 -0.000000 0.000000 -44.423679 -3.043532 -0.076700 0.000000 -0.000002 -0.000006 -8.728667 10.710559 -0.000009 -0.000000 -0.000000 -0.000001 -0.000679 9.278123 0.000000 -0.000000 -0.000000 8.207792 -6.751710 -1.599556 -0.074518 -0.000003 0.000081 -0.000002 -44.370014 0.346960 0.148822 0.000002 0.000000 -0.000001 -44.423664 -3.044403 -0.074314 0.000000 -0.000002 -0.000004 -8.728671 10.710558 0.000007 -0.000000 -0.000000 0.000000 -0.000680 9.278137 -0.000000 0.000000 -0.000001 
